<svg width="571" height="488" viewBox="0 0 571 488" fill="none" xmlns="http://www.w3.org/2000/svg">
    <path opacity="0.67" d="M265.303 487.899L0.936523 322.038L265.146 156.007L529.512 322.038L265.303 487.899Z" fill="#373896"></path>
    <path opacity="0.67" d="M265.303 462.186L41.8135 322.038L265.146 181.721L488.636 322.038L265.303 462.186Z" fill="#262170"></path>
    <path opacity="0.9" d="M265.749 432.525L90.0273 322.178L265.593 211.831L441.315 322.178L265.749 432.525Z" fill="#0D084B"></path>
    <path d="M306.783 432.933C305.06 432.933 303.337 432.422 302.084 431.57L92.3766 299.937C90.967 299.086 90.0273 297.724 90.0273 296.532C90.0273 295.34 90.6538 294.488 91.7501 293.637L216.885 215.134C219.078 213.771 222.837 213.942 225.343 215.474L435.05 347.107C436.46 347.959 437.399 349.321 437.399 350.513C437.399 351.705 436.773 352.556 435.677 353.408L310.541 431.911C309.602 432.762 308.192 432.933 306.783 432.933ZM93.0031 298.575L302.711 430.208C304.747 431.57 308.035 431.57 309.758 430.549L434.894 352.046C435.363 351.705 435.833 351.364 435.833 350.683C435.833 350.002 435.207 349.151 434.267 348.64L224.56 217.007C222.524 215.645 219.235 215.645 217.512 216.666L92.3766 295.169C91.9067 295.51 91.4369 295.85 91.4369 296.532C91.5935 297.213 92.0634 298.064 93.0031 298.575Z" fill="url(#paint0_linear)"></path>
    <path d="M225.343 175.095L251.811 3.95568L249.618 2.93395L252.75 0.890491C253.377 0.379626 254.317 0.549911 255.256 1.06078L467.156 134.056C468.879 135.078 470.289 137.973 469.975 139.846L443.194 312.348C443.038 313.199 442.568 313.88 442.098 314.051L438.966 316.094L438.496 312.859H438.652L228.005 180.545C226.439 179.863 225.03 177.139 225.343 175.095Z" fill="url(#paint1_linear)"></path>
    <path d="M466.217 138.994L469.662 137.291C469.975 138.313 470.289 139.334 470.132 140.186L443.351 312.688C443.194 313.54 442.724 314.221 442.255 314.391L439.122 316.434L438.652 313.199H438.809L428.159 306.558L466.217 138.994Z" fill="url(#paint2_linear)"></path>
    <path d="M224.873 183.098L436.773 316.094C438.339 317.115 439.749 316.604 440.062 314.731L466.843 142.229C467.156 140.186 465.903 137.461 464.024 136.439L252.124 3.44411C250.558 2.42238 249.148 2.93325 248.835 4.80642L222.054 177.309C221.741 179.182 222.994 181.906 224.873 183.098Z" fill="#264083"></path>
    <path d="M91.5928 264.667L103.182 271.308L219.234 198.425C221.113 197.233 224.559 197.403 226.752 198.766L426.749 324.268C428.628 323.076 437.399 318.478 437.399 318.478L433.17 325.971C433.013 326.482 432.544 326.993 431.917 327.333L309.758 403.963C307.878 405.155 304.433 404.985 302.24 403.622L97.5442 275.055C96.6045 274.544 96.1346 273.863 95.8214 273.011L91.5928 264.667Z" fill="url(#paint3_linear)"></path>
    <path d="M93.3137 266.711L303.021 398.344C305.37 399.706 308.816 399.877 310.852 398.685L435.987 320.182C438.023 318.99 437.71 316.776 435.361 315.243L225.81 183.61C223.461 182.248 220.015 182.078 217.979 183.27L92.8439 261.773C90.8079 263.135 91.1211 265.349 93.3137 266.711Z" fill="url(#paint4_linear)"></path>
    <path d="M93.3161 265.689L303.024 397.322C305.373 398.685 308.818 398.855 310.854 397.663L435.99 319.16C436.616 318.649 437.086 318.138 437.243 317.627C437.399 318.649 437.086 319.5 435.99 320.182L310.854 398.685C308.818 399.877 305.373 399.706 303.024 398.344L93.3161 266.711C91.7499 265.86 91.2801 264.497 91.4367 263.476C91.7499 264.327 92.3764 265.008 93.3161 265.689Z" fill="white"></path>
    <g opacity="0.15">
        <g opacity="0.15">
            <g opacity="0.15">
                <path opacity="0.15" d="M224.56 181.907L236.149 188.549L352.201 115.665C354.08 114.473 357.526 114.644 359.718 116.006L559.716 241.508C561.595 240.316 570.365 235.719 570.365 235.719L566.137 243.211C565.98 243.722 565.51 244.233 564.884 244.574L442.724 321.203C440.845 322.395 437.399 322.225 435.207 320.863L230.511 192.636C229.571 192.125 229.101 191.444 228.788 190.592L224.56 181.907Z" fill="url(#paint5_linear)"></path>
                <path opacity="0.15" d="M568.486 232.653L358.779 101.021C357.369 100.169 355.333 99.6582 353.61 99.8285C354.863 99.9988 356.273 100.339 357.212 101.021L566.92 232.653C569.269 234.016 569.426 236.23 567.546 237.592L442.411 316.095C441.628 316.606 440.845 316.776 439.905 316.946C441.471 317.117 442.881 316.776 443.977 316.095L569.113 237.592C570.992 236.23 570.835 234.016 568.486 232.653Z" fill="white"></path>
            </g>
            <g opacity="0.5">
                <path opacity="0.5" d="M336.226 161.302L329.491 157.044C329.021 156.704 328.082 156.704 327.455 157.044L319.938 161.813C319.311 162.153 319.311 162.834 319.781 163.175L326.516 167.432C326.985 167.773 327.925 167.773 328.552 167.432L336.069 162.664C336.696 162.323 336.696 161.642 336.226 161.302Z" fill="#24126A"></path>
                <path opacity="0.5" d="M346.563 167.942L339.828 163.685C339.358 163.345 338.419 163.345 337.792 163.685L330.275 168.453C329.648 168.794 329.648 169.475 330.118 169.815L336.853 174.073C337.322 174.413 338.262 174.413 338.889 174.073L346.406 169.305C347.033 168.794 347.189 168.283 346.563 167.942Z" fill="#24126A"></path>
                <path opacity="0.5" d="M356.9 174.413L350.165 170.156C349.695 169.815 348.756 169.815 348.129 170.156L340.612 174.924C339.985 175.264 339.985 175.946 340.455 176.286L347.189 180.543C347.659 180.884 348.599 180.884 349.225 180.543L356.743 175.775C357.526 175.264 357.526 174.754 356.9 174.413Z" fill="#24126A"></path>
                <path opacity="0.5" d="M349.069 183.098L342.334 178.84C341.864 178.5 340.925 178.5 340.298 178.84L334.034 182.757C333.407 183.098 333.407 183.779 333.877 184.119L340.611 188.377C341.081 188.717 342.021 188.717 342.647 188.377L348.912 184.46C349.538 183.949 349.538 183.438 349.069 183.098Z" fill="#24126A"></path>
                <path opacity="0.5" d="M359.405 189.569L352.671 185.312C352.201 184.971 351.261 184.971 350.635 185.312L344.37 189.229C343.744 189.569 343.744 190.25 344.214 190.591L350.948 194.848C351.418 195.189 352.358 195.189 352.984 194.848L359.249 190.932C360.032 190.421 360.032 189.91 359.405 189.569Z" fill="#24126A"></path>
                <path opacity="0.5" d="M369.899 196.041L363.164 191.784C362.694 191.443 361.755 191.443 361.128 191.784L354.864 195.7C354.237 196.041 354.237 196.722 354.707 197.063L361.441 201.32C361.911 201.66 362.851 201.66 363.477 201.32L369.742 197.403C370.368 197.063 370.368 196.382 369.899 196.041Z" fill="#24126A"></path>
                <path opacity="0.5" d="M380.235 202.683L373.5 198.425C373.03 198.085 372.091 198.085 371.464 198.425L365.2 202.342C364.573 202.683 364.573 203.364 365.043 203.704L371.777 207.961C372.247 208.302 373.187 208.302 373.813 207.961L380.078 204.045C380.704 203.534 380.704 203.023 380.235 202.683Z" fill="#24126A"></path>
                <path opacity="0.5" d="M390.572 209.151L383.837 204.894C383.367 204.554 382.428 204.554 381.801 204.894L375.536 208.811C374.91 209.151 374.91 209.832 375.38 210.173L382.114 214.43C382.584 214.771 383.524 214.771 384.15 214.43L390.415 210.514C391.041 210.003 391.198 209.492 390.572 209.151Z" fill="#24126A"></path>
                <path opacity="0.5" d="M401.065 215.624L394.33 211.367C393.86 211.026 392.921 211.026 392.294 211.367L386.03 215.283C385.403 215.624 385.403 216.305 385.873 216.646L392.607 220.903C393.077 221.243 394.017 221.243 394.643 220.903L400.908 216.986C401.534 216.646 401.534 215.965 401.065 215.624Z" fill="#24126A"></path>
                <path opacity="0.5" d="M411.401 222.095L404.666 217.837C404.196 217.497 403.257 217.497 402.63 217.837L396.366 221.754C395.739 222.095 395.739 222.776 396.209 223.116L402.943 227.374C403.413 227.714 404.353 227.714 404.979 227.374L411.244 223.457C411.87 223.116 411.87 222.435 411.401 222.095Z" fill="#24126A"></path>
                <path opacity="0.5" d="M421.738 228.736L415.003 224.479C414.533 224.138 413.594 224.138 412.967 224.479L406.702 228.396C406.076 228.736 406.076 229.417 406.546 229.758L413.28 234.015C413.75 234.356 414.69 234.356 415.316 234.015L421.581 230.099C422.207 229.588 422.364 229.077 421.738 228.736Z" fill="#24126A"></path>
                <path opacity="0.5" d="M432.074 235.208L425.34 230.951C424.87 230.61 423.93 230.61 423.304 230.951L417.039 234.867C416.413 235.208 416.413 235.889 416.883 236.23L423.617 240.487C424.087 240.827 425.027 240.827 425.653 240.487L431.918 236.57C432.701 236.059 432.701 235.549 432.074 235.208Z" fill="#24126A"></path>
                <path opacity="0.5" d="M442.568 241.68L435.833 237.422C435.363 237.082 434.424 237.082 433.797 237.422L427.533 241.339C426.906 241.68 426.906 242.361 427.376 242.701L434.11 246.959C434.58 247.299 435.52 247.299 436.146 246.959L442.411 243.042C443.037 242.701 443.038 242.02 442.568 241.68Z" fill="#24126A"></path>
                <path opacity="0.5" d="M344.683 192.294L337.948 188.037C337.479 187.696 336.539 187.696 335.912 188.037L329.648 191.953C329.021 192.294 329.021 192.975 329.491 193.316L336.226 197.573C336.695 197.913 337.635 197.913 338.262 197.573L344.526 193.656C345.309 193.316 345.309 192.634 344.683 192.294Z" fill="#24126A"></path>
                <path opacity="0.5" d="M334.19 185.823L327.455 181.566C326.985 181.225 326.046 181.225 325.419 181.566L319.155 185.483C318.528 185.823 318.528 186.504 318.998 186.845L325.732 191.102C326.202 191.443 327.142 191.443 327.768 191.102L334.033 187.186C334.66 186.675 334.816 186.164 334.19 185.823Z" fill="#24126A"></path>
                <path opacity="0.5" d="M323.697 179.181L309.288 170.156C308.818 169.815 307.879 169.815 307.252 170.156L300.988 174.072C300.361 174.413 300.361 175.094 300.831 175.435L315.24 184.46C315.709 184.801 316.649 184.801 317.276 184.46L323.54 180.543C324.167 180.033 324.167 179.522 323.697 179.181Z" fill="#24126A"></path>
                <path opacity="0.5" d="M311.324 183.439L299.578 176.117C299.108 175.776 298.169 175.776 297.542 176.117L291.278 180.033C290.651 180.374 290.651 181.055 291.121 181.396L302.867 188.718C303.337 189.059 304.277 189.059 304.903 188.718L311.168 184.801C311.951 184.291 311.951 183.78 311.324 183.439Z" fill="#24126A"></path>
                <path opacity="0.5" d="M355.176 198.935L348.442 194.678C347.972 194.338 347.032 194.338 346.406 194.678L340.141 198.595C339.514 198.935 339.514 199.617 339.984 199.957L346.719 204.214C347.189 204.555 348.128 204.555 348.755 204.214L355.019 200.298C355.646 199.787 355.646 199.276 355.176 198.935Z" fill="#24126A"></path>
                <path opacity="0.5" d="M365.513 205.408L358.778 201.151C358.309 200.81 357.369 200.81 356.742 201.151L350.478 205.068C349.851 205.408 349.851 206.089 350.321 206.43L357.056 210.687C357.525 211.028 358.465 211.028 359.092 210.687L365.356 206.77C365.983 206.26 365.983 205.749 365.513 205.408Z" fill="#24126A"></path>
                <path opacity="0.5" d="M375.85 211.877L369.115 207.62C368.646 207.279 367.706 207.279 367.079 207.62L360.815 211.536C360.188 211.877 360.188 212.558 360.658 212.899L367.393 217.156C367.862 217.496 368.802 217.496 369.429 217.156L375.693 213.239C376.476 212.899 376.476 212.217 375.85 211.877Z" fill="#24126A"></path>
                <path opacity="0.5" d="M386.342 218.518L379.608 214.261C379.138 213.921 378.198 213.921 377.572 214.261L371.307 218.178C370.68 218.518 370.68 219.2 371.15 219.54L377.885 223.797C378.355 224.138 379.294 224.138 379.921 223.797L386.186 219.881C386.812 219.37 386.812 218.859 386.342 218.518Z" fill="#24126A"></path>
                <path opacity="0.5" d="M396.68 224.989L389.945 220.732C389.476 220.391 388.536 220.391 387.909 220.732L381.645 224.649C381.018 224.989 381.018 225.67 381.488 226.011L388.223 230.268C388.693 230.609 389.632 230.609 390.259 230.268L396.523 226.352C397.15 225.841 397.15 225.33 396.68 224.989Z" fill="#24126A"></path>
                <path opacity="0.5" d="M407.016 231.462L400.281 227.205C399.812 226.864 398.872 226.864 398.245 227.205L391.981 231.121C391.354 231.462 391.354 232.143 391.824 232.484L398.559 236.741C399.028 237.081 399.968 237.081 400.595 236.741L406.859 232.824C407.486 232.484 407.642 231.802 407.016 231.462Z" fill="#24126A"></path>
                <path opacity="0.5" d="M417.509 237.932L410.775 233.674C410.305 233.334 409.365 233.334 408.739 233.674L402.474 237.591C401.847 237.932 401.848 238.613 402.317 238.953L409.052 243.211C409.522 243.551 410.461 243.551 411.088 243.211L417.352 239.294C417.979 238.953 417.979 238.272 417.509 237.932Z" fill="#24126A"></path>
                <path opacity="0.5" d="M427.846 244.573L421.111 240.316C420.642 239.975 419.702 239.975 419.075 240.316L412.811 244.233C412.184 244.573 412.184 245.254 412.654 245.595L419.389 249.852C419.859 250.193 420.798 250.193 421.425 249.852L427.689 245.936C428.316 245.425 428.316 244.914 427.846 244.573Z" fill="#24126A"></path>
                <path opacity="0.5" d="M438.182 251.044L431.447 246.787C430.978 246.446 430.038 246.446 429.411 246.787L423.147 250.703C422.52 251.044 422.52 251.725 422.99 252.066L429.725 256.323C430.195 256.663 431.134 256.663 431.761 256.323L438.025 252.406C438.652 251.895 438.808 251.384 438.182 251.044Z" fill="#24126A"></path>
                <path opacity="0.5" d="M456.663 262.622L441.941 253.426C441.471 253.086 440.531 253.086 439.905 253.426L433.64 257.343C433.014 257.684 433.013 258.365 433.483 258.705L448.205 267.901C448.675 268.241 449.615 268.241 450.241 267.901L456.506 263.984C457.132 263.473 457.132 262.963 456.663 262.622Z" fill="#24126A"></path>
                <path opacity="0.5" d="M437.555 274.715L425.183 266.881C424.713 266.541 423.773 266.541 423.147 266.881L416.882 270.798C416.256 271.139 416.256 271.82 416.726 272.16L429.098 279.994C429.568 280.334 430.508 280.334 431.134 279.994L437.399 276.077C438.182 275.566 438.182 275.055 437.555 274.715Z" fill="#24126A"></path>
                <path opacity="0.5" d="M353.61 210.004L346.875 205.747C346.405 205.406 345.466 205.406 344.839 205.747L338.575 209.663C337.948 210.004 337.948 210.685 338.418 211.026L345.152 215.283C345.622 215.623 346.562 215.623 347.188 215.283L353.453 211.366C354.236 210.855 354.236 210.344 353.61 210.004Z" fill="#24126A"></path>
                <path opacity="0.5" d="M343.117 203.363L336.383 199.106C335.913 198.765 334.973 198.765 334.347 199.106L328.082 203.023C327.456 203.363 327.456 204.044 327.926 204.385L334.66 208.642C335.13 208.983 336.07 208.983 336.696 208.642L342.961 204.726C343.587 204.215 343.587 203.704 343.117 203.363Z" fill="#24126A"></path>
                <path opacity="0.5" d="M332.467 196.722L325.733 192.464C325.263 192.124 324.323 192.124 323.697 192.464L317.432 196.381C316.806 196.722 316.805 197.403 317.275 197.743L324.01 202.001C324.48 202.341 325.419 202.341 326.046 202.001L332.31 198.084C332.937 197.573 332.937 197.062 332.467 196.722Z" fill="#24126A"></path>
                <path opacity="0.5" d="M321.818 189.911L315.083 185.824C314.613 185.483 313.674 185.483 313.047 185.824L306.783 189.74C306.156 190.081 306.156 190.762 306.626 191.103L313.36 195.36C313.83 195.701 314.77 195.701 315.396 195.36L321.661 191.443C322.288 190.932 322.288 190.251 321.818 189.911Z" fill="#24126A"></path>
                <path opacity="0.5" d="M364.104 216.475L357.369 212.217C356.899 211.877 355.96 211.877 355.333 212.217L349.069 216.134C348.442 216.475 348.442 217.156 348.912 217.496L355.647 221.754C356.116 222.094 357.056 222.094 357.683 221.754L363.947 217.837C364.574 217.496 364.574 216.815 364.104 216.475Z" fill="#24126A"></path>
                <path opacity="0.5" d="M374.44 223.116L367.705 218.859C367.235 218.518 366.296 218.518 365.669 218.859L359.405 222.776C358.778 223.116 358.778 223.797 359.248 224.138L365.982 228.395C366.452 228.736 367.392 228.736 368.018 228.395L374.283 224.478C374.91 223.968 375.066 223.457 374.44 223.116Z" fill="#24126A"></path>
                <path opacity="0.5" d="M384.776 229.588L378.042 225.331C377.572 224.99 376.633 224.99 376.006 225.331L369.742 229.247C369.115 229.588 369.115 230.269 369.585 230.61L376.319 234.867C376.789 235.207 377.729 235.207 378.355 234.867L384.62 230.95C385.403 230.439 385.403 229.928 384.776 229.588Z" fill="#24126A"></path>
                <path opacity="0.5" d="M395.27 236.058L388.535 231.8C388.065 231.46 387.126 231.46 386.499 231.8L380.235 235.717C379.608 236.058 379.608 236.739 380.078 237.079L386.812 241.336C387.282 241.677 388.222 241.677 388.848 241.336L395.113 237.42C395.74 237.079 395.74 236.398 395.27 236.058Z" fill="#24126A"></path>
                <path opacity="0.5" d="M405.606 242.529L398.871 238.272C398.401 237.931 397.462 237.931 396.835 238.272L390.571 242.189C389.944 242.529 389.944 243.21 390.414 243.551L397.148 247.808C397.618 248.149 398.558 248.149 399.184 247.808L405.449 243.892C406.076 243.551 406.075 242.87 405.606 242.529Z" fill="#24126A"></path>
                <path opacity="0.5" d="M415.943 249.171L409.209 244.914C408.739 244.573 407.8 244.573 407.173 244.914L400.908 248.83C400.282 249.171 400.282 249.852 400.752 250.193L407.486 254.45C407.956 254.79 408.896 254.79 409.522 254.45L415.787 250.533C416.57 250.022 416.57 249.511 415.943 249.171Z" fill="#24126A"></path>
                <path opacity="0.5" d="M426.436 255.642L419.701 251.384C419.231 251.044 418.292 251.044 417.665 251.384L411.401 255.301C410.774 255.642 410.774 256.323 411.244 256.663L417.979 260.921C418.448 261.261 419.388 261.261 420.015 260.921L426.279 257.004C426.906 256.493 426.906 255.982 426.436 255.642Z" fill="#24126A"></path>
                <path opacity="0.5" d="M436.773 262.113L430.038 257.856C429.568 257.515 428.629 257.515 428.002 257.856L421.738 261.773C421.111 262.113 421.111 262.794 421.581 263.135L428.315 267.392C428.785 267.733 429.725 267.733 430.351 267.392L436.616 263.476C437.243 263.135 437.243 262.454 436.773 262.113Z" fill="#24126A"></path>
                <path opacity="0.5" d="M447.109 268.754L440.375 264.497C439.905 264.156 438.966 264.156 438.339 264.497L432.075 268.413C431.448 268.754 431.448 269.435 431.918 269.776L438.652 274.033C439.122 274.373 440.062 274.373 440.688 274.033L446.953 270.116C447.579 269.605 447.736 269.094 447.109 268.754Z" fill="#24126A"></path>
                <path opacity="0.5" d="M328.552 206.259L321.818 202.002C321.348 201.661 320.408 201.661 319.782 202.002L313.517 205.918C312.89 206.259 312.89 206.94 313.36 207.28L320.095 211.538C320.565 211.878 321.504 211.878 322.131 211.538L328.395 207.621C329.022 207.11 329.178 206.599 328.552 206.259Z" fill="#24126A"></path>
                <path opacity="0.5" d="M318.215 199.788L311.481 195.531C311.011 195.19 310.071 195.19 309.445 195.531L303.18 199.447C302.554 199.788 302.554 200.469 303.023 200.81L309.758 205.067C310.228 205.408 311.167 205.408 311.794 205.067L318.058 201.15C318.685 200.639 318.842 200.129 318.215 199.788Z" fill="#24126A"></path>
                <path opacity="0.5" d="M307.878 193.316L301.144 189.059C300.674 188.719 299.734 188.719 299.108 189.059L292.843 192.976C292.217 193.316 292.217 193.998 292.686 194.338L299.421 198.595C299.891 198.936 300.83 198.936 301.457 198.595L307.722 194.679C308.505 194.168 308.505 193.657 307.878 193.316Z" fill="#24126A"></path>
                <path opacity="0.5" d="M297.542 186.846L290.808 182.588C290.338 182.248 289.398 182.248 288.772 182.588L282.507 186.505C281.881 186.846 281.881 187.527 282.351 187.867L289.085 192.125C289.555 192.465 290.494 192.465 291.121 192.125L297.386 188.208C298.169 187.697 298.169 187.186 297.542 186.846Z" fill="#24126A"></path>
                <path opacity="0.5" d="M287.519 193.146L280.784 188.889C280.314 188.549 279.375 188.549 278.748 188.889L276.712 190.252C276.086 190.592 276.086 191.273 276.556 191.614L283.29 195.871C283.76 196.212 284.7 196.212 285.326 195.871L287.362 194.509C288.145 194.168 288.145 193.487 287.519 193.146Z" fill="#24126A"></path>
                <path opacity="0.5" d="M301.144 201.661L294.409 197.404C293.939 197.063 293 197.063 292.373 197.404L290.337 198.766C289.711 199.107 289.711 199.788 290.181 200.128L296.915 204.386C297.385 204.726 298.325 204.726 298.951 204.386L300.987 203.023C301.613 202.513 301.613 202.002 301.144 201.661Z" fill="#24126A"></path>
                <path opacity="0.5" d="M311.324 208.131L304.59 203.874C304.12 203.533 303.18 203.533 302.554 203.874L300.518 205.236C299.891 205.576 299.891 206.258 300.361 206.598L307.096 210.855C307.566 211.196 308.505 211.196 309.132 210.855L311.168 209.493C311.794 208.982 311.951 208.471 311.324 208.131Z" fill="#24126A"></path>
                <path opacity="0.5" d="M321.66 214.602L314.926 210.345C314.456 210.005 313.516 210.005 312.89 210.345L310.854 211.708C310.227 212.048 310.227 212.729 310.697 213.07L317.432 217.327C317.901 217.668 318.841 217.668 319.468 217.327L321.504 215.965C322.13 215.454 322.13 214.943 321.66 214.602Z" fill="#24126A"></path>
                <path opacity="0.5" d="M331.997 221.072L325.263 216.815C324.793 216.474 323.853 216.474 323.227 216.815L321.191 218.177C320.564 218.518 320.564 219.199 321.034 219.54L327.769 223.797C328.238 224.137 329.178 224.137 329.805 223.797L331.841 222.435C332.467 221.924 332.467 221.413 331.997 221.072Z" fill="#24126A"></path>
                <path opacity="0.5" d="M389.319 257.004L382.584 252.747C382.114 252.406 381.175 252.406 380.548 252.747L378.512 254.109C377.886 254.45 377.886 255.131 378.355 255.471L385.09 259.728C385.56 260.069 386.5 260.069 387.126 259.728L389.162 258.366C389.945 258.026 389.945 257.344 389.319 257.004Z" fill="#24126A"></path>
                <path opacity="0.5" d="M399.654 263.476L392.92 259.218C392.45 258.878 391.51 258.878 390.884 259.218L388.848 260.581C388.222 260.921 388.222 261.602 388.691 261.943L395.426 266.2C395.896 266.541 396.835 266.541 397.462 266.2L399.498 264.838C400.124 264.497 400.281 263.816 399.654 263.476Z" fill="#24126A"></path>
                <path opacity="0.5" d="M409.991 269.944L403.257 265.687C402.787 265.346 401.847 265.346 401.221 265.687L399.185 267.049C398.558 267.39 398.558 268.071 399.028 268.412L405.763 272.669C406.233 273.009 407.172 273.009 407.799 272.669L409.835 271.307C410.461 270.966 410.461 270.285 409.991 269.944Z" fill="#24126A"></path>
                <path opacity="0.5" d="M420.328 276.417L413.594 272.16C413.124 271.819 412.184 271.819 411.558 272.16L409.522 273.522C408.895 273.863 408.895 274.544 409.365 274.884L416.1 279.142C416.569 279.482 417.509 279.482 418.136 279.142L420.172 277.779C420.798 277.439 420.798 276.757 420.328 276.417Z" fill="#24126A"></path>
                <path opacity="0.5" d="M339.045 212.727L332.311 208.47C331.841 208.13 330.901 208.13 330.275 208.47L324.01 212.387C323.384 212.728 323.384 213.409 323.853 213.749L330.588 218.006C331.058 218.347 331.997 218.347 332.624 218.006L338.889 214.09C339.515 213.749 339.515 213.068 339.045 212.727Z" fill="#24126A"></path>
                <path opacity="0.5" d="M349.381 219.369L342.647 215.112C342.177 214.771 341.237 214.771 340.611 215.112L334.346 219.029C333.72 219.369 333.72 220.05 334.189 220.391L340.924 224.648C341.394 224.989 342.333 224.989 342.96 224.648L349.225 220.731C349.851 220.221 349.851 219.71 349.381 219.369Z" fill="#24126A"></path>
                <path opacity="0.5" d="M359.718 225.84L352.984 221.583C352.514 221.242 351.574 221.242 350.948 221.583L344.683 225.499C344.056 225.84 344.056 226.521 344.526 226.862L351.261 231.119C351.731 231.459 352.67 231.459 353.297 231.119L359.561 227.202C360.188 226.691 360.344 226.18 359.718 225.84Z" fill="#24126A"></path>
                <path opacity="0.5" d="M370.055 232.312L363.32 228.055C362.851 227.715 361.911 227.715 361.284 228.055L355.02 231.972C354.393 232.312 354.393 232.994 354.863 233.334L361.598 237.591C362.068 237.932 363.007 237.932 363.634 237.591L369.898 233.675C370.681 233.334 370.681 232.653 370.055 232.312Z" fill="#24126A"></path>
                <path opacity="0.5" d="M380.548 238.782L373.814 234.525C373.344 234.184 372.404 234.184 371.778 234.525L365.513 238.442C364.887 238.782 364.887 239.463 365.356 239.804L372.091 244.061C372.561 244.402 373.5 244.402 374.127 244.061L380.391 240.144C381.018 239.804 381.018 239.123 380.548 238.782Z" fill="#24126A"></path>
                <path opacity="0.5" d="M390.884 245.426L384.15 241.169C383.68 240.828 382.74 240.828 382.114 241.169L375.849 245.085C375.222 245.426 375.223 246.107 375.692 246.447L382.427 250.705C382.897 251.045 383.836 251.045 384.463 250.705L390.727 246.788C391.354 246.277 391.51 245.766 390.884 245.426Z" fill="#24126A"></path>
                <path opacity="0.5" d="M401.221 251.895L394.487 247.637C394.017 247.297 393.077 247.297 392.45 247.637L386.186 251.554C385.559 251.895 385.559 252.576 386.029 252.916L392.764 257.173C393.234 257.514 394.173 257.514 394.8 257.173L401.064 253.257C401.847 252.746 401.847 252.235 401.221 251.895Z" fill="#24126A"></path>
                <path opacity="0.5" d="M411.714 258.367L404.98 254.11C404.51 253.769 403.57 253.769 402.944 254.11L396.679 258.027C396.053 258.367 396.053 259.048 396.522 259.389L403.257 263.646C403.727 263.987 404.666 263.987 405.293 263.646L411.558 259.729C412.184 259.389 412.184 258.708 411.714 258.367Z" fill="#24126A"></path>
                <path opacity="0.5" d="M422.051 265.008L415.317 260.751C414.847 260.41 413.907 260.41 413.281 260.751L407.016 264.667C406.389 265.008 406.389 265.689 406.859 266.03L413.594 270.287C414.064 270.627 415.003 270.627 415.63 270.287L421.894 266.37C422.521 265.859 422.521 265.348 422.051 265.008Z" fill="#24126A"></path>
                <path opacity="0.5" d="M338.419 176.456L318.686 164.025C318.216 163.684 317.276 163.684 316.65 164.025L310.385 167.942C309.759 168.282 309.759 168.963 310.228 169.304L329.962 181.735C330.432 182.076 331.371 182.076 331.998 181.735L338.262 177.818C339.046 177.307 339.046 176.797 338.419 176.456Z" fill="#24126A"></path>
                <path opacity="0.5" d="M466.06 256.493L446.326 244.062C445.856 243.721 444.917 243.721 444.29 244.062L438.026 247.979C437.399 248.319 437.399 249 437.869 249.341L457.603 261.772C458.072 262.113 459.012 262.113 459.639 261.772L465.903 257.855C466.53 257.345 466.53 256.834 466.06 256.493Z" fill="#24126A"></path>
                <path opacity="0.5" d="M446.796 230.778L440.062 226.521C439.592 226.18 438.652 226.18 438.026 226.521L430.508 231.289C429.882 231.63 429.882 232.311 430.352 232.651L437.086 236.909C437.556 237.249 438.496 237.249 439.122 236.909L446.639 232.141C447.266 231.63 447.266 231.119 446.796 230.778Z" fill="#24126A"></path>
                <path opacity="0.5" d="M371.464 183.439L360.657 176.628C360.188 176.287 359.248 176.287 358.621 176.628L351.104 181.396C350.477 181.736 350.477 182.417 350.947 182.758L361.754 189.569C362.224 189.91 363.163 189.91 363.79 189.569L371.307 184.801C371.934 184.29 371.934 183.78 371.464 183.439Z" fill="#24126A"></path>
                <path opacity="0.5" d="M436.772 224.478L425.966 217.667C425.496 217.326 424.556 217.326 423.93 217.667L416.412 222.435C415.786 222.775 415.786 223.456 416.256 223.797L427.062 230.608C427.532 230.949 428.472 230.949 429.098 230.608L436.616 225.84C437.242 225.33 437.399 224.819 436.772 224.478Z" fill="#24126A"></path>
                <path opacity="0.5" d="M386.343 192.805L375.536 185.994C375.066 185.653 374.127 185.653 373.5 185.994L365.983 190.762C365.356 191.102 365.356 191.783 365.826 192.124L376.633 198.936C377.102 199.276 378.042 199.276 378.669 198.936L386.186 194.168C386.812 193.827 386.969 193.146 386.343 192.805Z" fill="#24126A"></path>
                <path opacity="0.5" d="M366.14 192.294L412.968 221.584C413.594 221.925 414.534 221.925 415.003 221.584L422.678 216.816C423.147 216.475 423.147 215.965 422.678 215.454L375.85 186.164L366.14 192.294Z" fill="#24126A"></path>
                <path opacity="0.5" d="M465.903 248.83L473.42 253.598C473.89 253.939 474.673 253.768 475.143 253.598L478.276 251.725C478.745 251.384 478.745 250.873 478.276 250.703L470.758 245.935C470.288 245.594 469.505 245.765 469.035 245.935L465.903 247.808C465.59 248.149 465.433 248.489 465.903 248.83Z" fill="#24126A"></path>
                <path opacity="0.5" d="M455.41 242.19L462.927 246.958C463.397 247.299 464.18 247.129 464.65 246.958L467.782 245.085C468.252 244.745 468.252 244.234 467.782 244.063L460.265 239.295C459.795 238.955 459.012 239.125 458.542 239.295L455.41 241.168C455.097 241.509 454.94 242.02 455.41 242.19Z" fill="#24126A"></path>
                <path opacity="0.5" d="M445.073 235.718L452.591 240.487C453.06 240.827 453.844 240.657 454.313 240.487L457.446 238.613C457.916 238.273 457.916 237.762 457.446 237.592L449.928 232.824C449.458 232.483 448.675 232.653 448.205 232.824L445.073 234.697C444.603 235.037 444.603 235.548 445.073 235.718Z" fill="#24126A"></path>
                <path opacity="0.5" d="M450.085 245.766L457.602 250.534C458.072 250.875 458.855 250.705 459.325 250.534L462.457 248.661C462.927 248.321 462.927 247.81 462.457 247.639L454.94 242.871C454.47 242.531 453.687 242.701 453.217 242.871L450.085 244.745C449.615 244.915 449.615 245.426 450.085 245.766Z" fill="#24126A"></path>
            </g>
        </g>
    </g>
    <g opacity="0.8">
        <path opacity="0.8" d="M189.791 252.24L183.057 247.983C182.587 247.642 182.587 247.131 183.213 246.62L191.044 241.682C191.67 241.342 192.61 241.171 193.08 241.512L199.814 245.769C200.284 246.11 200.284 246.62 199.658 247.131L191.827 252.07C191.357 252.41 190.417 252.581 189.791 252.24Z" fill="#2F63C2"></path>
        <path opacity="0.8" d="M200.128 258.71L193.394 254.452C192.924 254.112 192.924 253.601 193.55 253.09L201.381 248.152C202.007 247.811 202.947 247.641 203.417 247.982L210.151 252.239C210.621 252.579 210.621 253.09 209.995 253.601L202.164 258.539C201.538 258.88 200.754 259.05 200.128 258.71Z" fill="#2F63C2"></path>
        <path opacity="0.8" d="M210.464 265.011L203.729 260.754C203.26 260.414 203.26 259.903 203.886 259.392L211.717 254.454C212.343 254.113 213.283 253.943 213.753 254.283L220.487 258.54C220.957 258.881 220.957 259.392 220.331 259.903L212.5 264.841C211.873 265.352 210.934 265.352 210.464 265.011Z" fill="#2F63C2"></path>
        <path opacity="0.8" d="M224.716 259.732L217.981 255.645C217.512 255.304 217.512 254.794 218.138 254.283L224.716 250.196C225.342 249.855 226.282 249.685 226.752 250.025L233.486 254.283C233.956 254.623 233.956 255.134 233.33 255.645L226.752 259.732C226.125 260.072 225.186 260.072 224.716 259.732Z" fill="#2F63C2"></path>
        <path opacity="0.8" d="M234.896 266.204L228.162 261.947C227.692 261.606 227.692 261.095 228.319 260.584L234.896 256.498C235.523 256.157 236.463 255.987 236.933 256.327L243.667 260.584C244.137 260.925 244.137 261.436 243.51 261.947L236.933 266.034C236.463 266.545 235.523 266.545 234.896 266.204Z" fill="#2F63C2"></path>
        <path opacity="0.8" d="M245.232 272.674L238.498 268.416C238.028 268.076 238.028 267.565 238.655 267.054L245.232 262.967C245.859 262.627 246.799 262.456 247.269 262.797L254.003 267.054C254.473 267.395 254.473 267.906 253.846 268.416L247.269 272.503C246.642 273.014 245.702 273.014 245.232 272.674Z" fill="#2F63C2"></path>
        <path opacity="0.8" d="M255.569 279.144L248.835 274.887C248.365 274.547 248.365 274.036 248.992 273.525L255.569 269.438C256.196 269.097 257.135 268.927 257.605 269.268L264.34 273.525C264.81 273.865 264.81 274.376 264.183 274.887L257.605 278.974C256.979 279.485 256.039 279.485 255.569 279.144Z" fill="#2F63C2"></path>
        <path opacity="0.8" d="M265.749 285.615L259.015 281.358C258.545 281.017 258.545 280.506 259.171 279.996L265.749 275.909C266.376 275.568 267.315 275.398 267.785 275.738L274.52 279.996C274.989 280.336 274.989 280.847 274.363 281.358L267.785 285.445C267.315 285.956 266.376 285.956 265.749 285.615Z" fill="#2F63C2"></path>
        <path opacity="0.8" d="M276.086 292.087L269.352 287.83C268.882 287.489 268.882 286.978 269.508 286.467L276.086 282.38C276.712 282.04 277.652 281.869 278.122 282.21L284.856 286.467C285.326 286.808 285.326 287.319 284.7 287.83L278.122 291.917C277.496 292.257 276.556 292.427 276.086 292.087Z" fill="#2F63C2"></path>
        <path opacity="0.8" d="M286.422 298.557L279.687 294.299C279.218 293.959 279.218 293.448 279.844 292.937L286.422 288.85C287.048 288.51 287.988 288.339 288.458 288.68L295.192 292.937C295.662 293.278 295.662 293.788 295.036 294.299L288.458 298.386C287.831 298.727 286.892 298.897 286.422 298.557Z" fill="#2F63C2"></path>
        <path opacity="0.8" d="M296.603 305.029L289.868 300.772C289.398 300.431 289.398 299.921 290.025 299.41L296.603 295.323C297.229 294.982 298.169 294.812 298.639 295.152L305.373 299.41C305.843 299.75 305.843 300.261 305.216 300.772L298.639 304.859C298.169 305.199 297.229 305.37 296.603 305.029Z" fill="#2F63C2"></path>
        <path opacity="0.8" d="M306.939 311.329L300.204 307.072C299.734 306.731 299.734 306.22 300.361 305.709L306.939 301.623C307.565 301.282 308.505 301.112 308.975 301.452L315.709 305.709C316.179 306.05 316.179 306.561 315.552 307.072L308.975 311.159C308.348 311.67 307.408 311.67 306.939 311.329Z" fill="#2F63C2"></path>
        <path opacity="0.8" d="M317.275 317.801L310.541 313.543C310.071 313.203 310.071 312.692 310.698 312.181L317.275 308.094C317.902 307.754 318.842 307.583 319.311 307.924L326.046 312.181C326.516 312.522 326.516 313.033 325.889 313.543L319.311 317.63C318.685 318.141 317.745 318.141 317.275 317.801Z" fill="#2F63C2"></path>
        <path opacity="0.8" d="M239.751 256.667L233.017 252.41C232.547 252.069 232.547 251.558 233.173 251.047L239.751 246.96C240.377 246.62 241.317 246.45 241.787 246.79L248.522 251.047C248.991 251.388 248.991 251.899 248.365 252.41L241.787 256.497C241.317 257.007 240.377 257.007 239.751 256.667Z" fill="#2F63C2"></path>
        <path opacity="0.8" d="M229.415 250.195L222.681 245.938C222.211 245.597 222.211 245.087 222.837 244.576L229.415 240.489C230.041 240.148 230.981 239.978 231.451 240.318L238.185 244.576C238.655 244.916 238.655 245.427 238.029 245.938L231.451 250.025C230.825 250.365 229.885 250.536 229.415 250.195Z" fill="#2F63C2"></path>
        <path opacity="0.8" d="M218.921 243.553L204.513 234.528C204.043 234.187 204.043 233.676 204.669 233.165L211.247 229.079C211.874 228.738 212.813 228.568 213.283 228.908L227.692 237.934C228.162 238.274 228.162 238.785 227.535 239.296L220.957 243.383C220.331 243.894 219.391 243.894 218.921 243.553Z" fill="#2F63C2"></path>
        <path opacity="0.8" d="M226.283 235.55L214.693 228.228C214.223 227.887 214.223 227.377 214.85 226.866L221.428 222.779C222.054 222.438 222.994 222.268 223.464 222.609L235.053 229.931C235.523 230.271 235.523 230.782 234.897 231.293L228.319 235.38C227.692 235.891 226.753 235.891 226.283 235.55Z" fill="#2F63C2"></path>
        <path opacity="0.8" d="M250.088 263.139L243.353 258.881C242.884 258.541 242.884 258.03 243.51 257.519L250.088 253.432C250.714 253.092 251.654 252.921 252.124 253.262L258.858 257.519C259.328 257.86 259.328 258.37 258.702 258.881L252.124 262.968C251.497 263.479 250.558 263.479 250.088 263.139Z" fill="#2F63C2"></path>
        <path opacity="0.8" d="M260.424 269.608L253.689 265.351C253.22 265.011 253.22 264.5 253.846 263.989L260.424 259.902C261.05 259.561 261.99 259.391 262.46 259.732L269.194 263.989C269.664 264.329 269.664 264.84 269.038 265.351L262.46 269.438C261.833 269.949 260.894 269.949 260.424 269.608Z" fill="#2F63C2"></path>
        <path opacity="0.8" d="M270.605 276.08L263.87 271.823C263.4 271.482 263.4 270.971 264.027 270.46L270.605 266.374C271.231 266.033 272.171 265.863 272.641 266.203L279.375 270.46C279.845 270.801 279.845 271.312 279.218 271.823L272.641 275.91C272.171 276.421 271.231 276.421 270.605 276.08Z" fill="#2F63C2"></path>
        <path opacity="0.8" d="M280.941 282.55L274.207 278.292C273.737 277.952 273.737 277.441 274.364 276.93L280.941 272.843C281.568 272.503 282.508 272.332 282.977 272.673L289.712 276.93C290.182 277.271 290.182 277.782 289.555 278.292L282.977 282.379C282.351 282.89 281.411 282.89 280.941 282.55Z" fill="#2F63C2"></path>
        <path opacity="0.8" d="M291.277 289.021L284.543 284.764C284.073 284.424 284.073 283.913 284.7 283.402L291.277 279.315C291.904 278.974 292.843 278.804 293.313 279.145L300.048 283.402C300.518 283.742 300.517 284.253 299.891 284.764L293.313 288.851C292.687 289.362 291.747 289.362 291.277 289.021Z" fill="#2F63C2"></path>
        <path opacity="0.8" d="M301.457 295.491L294.723 291.234C294.253 290.893 294.253 290.382 294.879 289.872L301.457 285.785C302.083 285.444 303.023 285.274 303.493 285.614L310.227 289.872C310.697 290.212 310.697 290.723 310.071 291.234L303.493 295.321C303.023 295.661 302.083 295.832 301.457 295.491Z" fill="#2F63C2"></path>
        <path opacity="0.8" d="M311.794 301.963L305.06 297.706C304.59 297.365 304.59 296.854 305.216 296.343L311.794 292.256C312.42 291.916 313.36 291.745 313.83 292.086L320.564 296.343C321.034 296.684 321.034 297.195 320.408 297.706L313.83 301.792C313.203 302.133 312.264 302.303 311.794 301.963Z" fill="#2F63C2"></path>
        <path opacity="0.8" d="M322.131 308.435L315.396 304.178C314.927 303.838 314.927 303.327 315.553 302.816L322.131 298.729C322.757 298.388 323.697 298.218 324.167 298.559L330.901 302.816C331.371 303.156 331.371 303.667 330.745 304.178L324.167 308.265C323.54 308.606 322.601 308.776 322.131 308.435Z" fill="#2F63C2"></path>
        <path opacity="0.8" d="M332.311 314.735L325.576 310.478C325.106 310.137 325.106 309.627 325.733 309.116L332.311 305.029C332.937 304.688 333.877 304.518 334.347 304.858L341.081 309.116C341.551 309.456 341.551 309.967 340.924 310.478L334.347 314.565C333.877 315.076 332.937 315.076 332.311 314.735Z" fill="#2F63C2"></path>
        <path opacity="0.8" d="M350.635 326.314L336.069 317.119C335.599 316.778 335.599 316.267 336.226 315.756L342.804 311.669C343.43 311.329 344.37 311.159 344.84 311.499L359.405 320.695C359.875 321.035 359.875 321.546 359.248 322.057L352.671 326.144C352.044 326.655 351.104 326.655 350.635 326.314Z" fill="#2F63C2"></path>
        <path opacity="0.8" d="M370.681 313.712L358.465 306.049C357.995 305.709 357.995 305.198 358.621 304.687L365.199 300.6C365.826 300.259 366.765 300.089 367.235 300.43L379.451 308.093C379.921 308.433 379.921 308.944 379.295 309.455L372.717 313.542C372.09 314.053 371.151 314.053 370.681 313.712Z" fill="#2F63C2"></path>
        <path opacity="0.8" d="M268.099 261.946L261.364 257.689C260.894 257.348 260.894 256.838 261.521 256.327L268.099 252.24C268.725 251.899 269.665 251.729 270.135 252.069L276.869 256.327C277.339 256.667 277.339 257.178 276.713 257.689L270.135 261.776C269.508 262.116 268.569 262.287 268.099 261.946Z" fill="#2F63C2"></path>
        <path opacity="0.8" d="M257.605 255.304L250.871 251.046C250.401 250.706 250.401 250.195 251.028 249.684L257.605 245.597C258.232 245.257 259.172 245.086 259.641 245.427L266.376 249.684C266.846 250.025 266.846 250.536 266.219 251.046L259.641 255.133C259.015 255.644 258.075 255.644 257.605 255.304Z" fill="#2F63C2"></path>
        <path opacity="0.8" d="M246.955 248.663L240.221 244.406C239.751 244.065 239.751 243.554 240.377 243.043L246.955 238.957C247.582 238.616 248.521 238.446 248.991 238.786L255.726 243.043C256.195 243.384 256.195 243.895 255.569 244.406L248.991 248.493C248.521 249.004 247.582 249.004 246.955 248.663Z" fill="#2F63C2"></path>
        <path opacity="0.8" d="M236.462 242.019L229.727 237.762C229.258 237.422 229.258 236.911 229.884 236.4L236.462 232.313C237.088 231.972 238.028 231.802 238.498 232.143L245.232 236.4C245.702 236.74 245.702 237.251 245.076 237.762L238.498 241.849C237.871 242.36 237.088 242.36 236.462 242.019Z" fill="#2F63C2"></path>
        <path opacity="0.8" d="M278.436 268.417L271.701 264.16C271.231 263.819 271.231 263.308 271.858 262.797L278.436 258.71C279.062 258.37 280.002 258.2 280.472 258.54L287.206 262.797C287.676 263.138 287.676 263.649 287.049 264.16L280.472 268.247C279.845 268.587 278.905 268.757 278.436 268.417Z" fill="#2F63C2"></path>
        <path opacity="0.8" d="M288.615 274.887L281.881 270.629C281.411 270.289 281.411 269.778 282.037 269.267L288.615 265.18C289.242 264.84 290.181 264.669 290.651 265.01L297.386 269.267C297.856 269.608 297.856 270.119 297.229 270.629L290.651 274.716C290.181 275.057 289.242 275.227 288.615 274.887Z" fill="#2F63C2"></path>
        <path opacity="0.8" d="M298.951 281.189L292.217 276.932C291.747 276.592 291.747 276.081 292.373 275.57L298.951 271.483C299.578 271.142 300.517 270.972 300.987 271.313L307.722 275.57C308.192 275.91 308.192 276.421 307.565 276.932L300.987 281.189C300.361 281.53 299.421 281.53 298.951 281.189Z" fill="#2F63C2"></path>
        <path opacity="0.8" d="M309.288 287.658L302.554 283.401C302.084 283.06 302.084 282.549 302.71 282.039L309.288 277.952C309.915 277.611 310.854 277.441 311.324 277.781L318.059 282.039C318.528 282.379 318.528 282.89 317.902 283.401L311.324 287.488C310.698 287.999 309.758 287.999 309.288 287.658Z" fill="#2F63C2"></path>
        <path opacity="0.8" d="M319.469 294.13L312.734 289.873C312.264 289.532 312.264 289.021 312.891 288.51L319.469 284.423C320.095 284.083 321.035 283.912 321.505 284.253L328.239 288.51C328.709 288.851 328.709 289.362 328.083 289.873L321.505 293.959C321.035 294.47 320.095 294.47 319.469 294.13Z" fill="#2F63C2"></path>
        <path opacity="0.8" d="M329.805 300.6L323.07 296.343C322.6 296.003 322.6 295.492 323.227 294.981L329.805 290.894C330.431 290.553 331.371 290.383 331.841 290.724L338.575 294.981C339.045 295.322 339.045 295.832 338.419 296.343L331.841 300.43C331.214 300.941 330.275 300.941 329.805 300.6Z" fill="#2F63C2"></path>
        <path opacity="0.8" d="M340.141 307.071L333.406 302.814C332.936 302.473 332.936 301.963 333.563 301.452L340.141 297.365C340.767 297.024 341.707 296.854 342.177 297.194L348.911 301.452C349.381 301.792 349.381 302.303 348.755 302.814L342.177 306.901C341.55 307.412 340.611 307.412 340.141 307.071Z" fill="#2F63C2"></path>
        <path opacity="0.8" d="M350.321 313.542L343.587 309.285C343.117 308.944 343.117 308.433 343.743 307.922L350.321 303.835C350.948 303.495 351.887 303.325 352.357 303.665L359.092 307.922C359.562 308.263 359.562 308.774 358.935 309.285L352.357 313.372C351.887 313.882 350.948 313.882 350.321 313.542Z" fill="#2F63C2"></path>
        <path opacity="0.8" d="M360.658 320.014L353.924 315.757C353.454 315.417 353.454 314.906 354.08 314.395L360.658 310.308C361.285 309.968 362.224 309.797 362.694 310.138L369.429 314.395C369.898 314.736 369.898 315.246 369.272 315.757L362.694 319.844C362.068 320.355 361.128 320.355 360.658 320.014Z" fill="#2F63C2"></path>
        <path opacity="0.8" d="M262.617 245.938L255.883 241.681C255.413 241.341 255.413 240.83 256.039 240.319L262.617 236.232C263.244 235.891 264.183 235.721 264.653 236.062L271.388 240.319C271.858 240.659 271.858 241.17 271.231 241.681L264.653 245.768C264.183 246.279 263.244 246.279 262.617 245.938Z" fill="#2F63C2"></path>
        <path opacity="0.8" d="M252.438 239.467L245.703 235.209C245.233 234.869 245.233 234.358 245.86 233.847L252.438 229.76C253.064 229.42 254.004 229.249 254.473 229.59L261.208 233.847C261.678 234.188 261.678 234.699 261.051 235.209L254.473 239.296C253.847 239.807 252.907 239.807 252.438 239.467Z" fill="#2F63C2"></path>
        <path opacity="0.8" d="M242.257 233.166L235.522 228.909C235.053 228.568 235.053 228.057 235.679 227.546L242.257 223.459C242.883 223.119 243.823 222.949 244.293 223.289L251.027 227.546C251.497 227.887 251.497 228.398 250.871 228.909L244.293 232.996C243.666 233.336 242.727 233.336 242.257 233.166Z" fill="#2F63C2"></path>
        <path opacity="0.8" d="M231.921 226.696L225.186 222.439C224.717 222.098 224.717 221.588 225.343 221.077L231.921 216.99C232.547 216.649 233.487 216.479 233.957 216.819L240.691 221.077C241.161 221.417 241.161 221.928 240.535 222.439L233.957 226.526C233.487 227.037 232.547 227.037 231.921 226.696Z" fill="#2F63C2"></path>
        <path opacity="0.8" d="M242.57 220.055L235.836 215.797C235.366 215.457 235.366 214.946 235.993 214.435L238.185 213.073C238.812 212.732 239.751 212.562 240.221 212.902L246.955 217.16C247.425 217.5 247.425 218.011 246.799 218.522L244.606 219.884C243.98 220.395 243.04 220.395 242.57 220.055Z" fill="#2F63C2"></path>
        <path opacity="0.8" d="M255.883 228.399L249.148 224.142C248.679 223.801 248.679 223.291 249.305 222.78L251.498 221.417C252.124 221.077 253.064 220.907 253.534 221.247L260.268 225.504C260.738 225.845 260.738 226.356 260.111 226.867L257.919 228.229C257.292 228.74 256.353 228.74 255.883 228.399Z" fill="#2F63C2"></path>
        <path opacity="0.8" d="M266.063 234.87L259.328 230.613C258.858 230.272 258.858 229.761 259.485 229.25L261.677 227.888C262.304 227.548 263.243 227.377 263.713 227.718L270.448 231.975C270.918 232.316 270.918 232.827 270.291 233.337L268.098 234.7C267.472 235.211 266.532 235.211 266.063 234.87Z" fill="#2F63C2"></path>
        <path opacity="0.8" d="M276.242 241.17L269.508 236.913C269.038 236.572 269.038 236.061 269.664 235.55L271.857 234.188C272.483 233.847 273.423 233.677 273.893 234.018L280.627 238.275C281.097 238.616 281.097 239.126 280.471 239.637L278.278 241C277.652 241.51 276.712 241.51 276.242 241.17Z" fill="#2F63C2"></path>
        <path opacity="0.8" d="M286.422 247.641L279.687 243.384C279.218 243.044 279.218 242.533 279.844 242.022L282.037 240.66C282.663 240.319 283.603 240.149 284.073 240.489L290.807 244.747C291.277 245.087 291.277 245.598 290.651 246.109L288.458 247.471C287.831 247.982 286.892 247.982 286.422 247.641Z" fill="#2F63C2"></path>
        <path opacity="0.8" d="M343.273 283.401L336.539 279.144C336.069 278.803 336.069 278.293 336.696 277.782L338.888 276.419C339.515 276.079 340.454 275.909 340.924 276.249L347.659 280.506C348.129 280.847 348.129 281.358 347.502 281.869L345.309 283.231C344.84 283.572 343.9 283.742 343.273 283.401Z" fill="#2F63C2"></path>
        <path opacity="0.8" d="M353.454 289.703L346.72 285.446C346.25 285.105 346.25 284.594 346.876 284.083L349.069 282.721C349.695 282.381 350.635 282.21 351.105 282.551L357.839 286.808C358.309 287.149 358.309 287.66 357.683 288.17L355.49 289.533C355.02 290.044 354.081 290.044 353.454 289.703Z" fill="#2F63C2"></path>
        <path opacity="0.8" d="M363.634 296.174L356.899 291.916C356.43 291.576 356.429 291.065 357.056 290.554L359.249 289.192C359.875 288.851 360.815 288.681 361.285 289.022L368.019 293.279C368.489 293.619 368.489 294.13 367.862 294.641L365.67 296.003C365.2 296.514 364.26 296.514 363.634 296.174Z" fill="#2F63C2"></path>
        <path opacity="0.8" d="M373.97 302.476L367.235 298.219C366.765 297.879 366.765 297.368 367.392 296.857L369.585 295.495C370.211 295.154 371.151 294.984 371.621 295.324L378.355 299.582C378.825 299.922 378.825 300.433 378.198 300.944L376.006 302.306C375.379 302.817 374.44 302.817 373.97 302.476Z" fill="#2F63C2"></path>
        <path opacity="0.8" d="M272.953 252.41L266.219 248.153C265.749 247.812 265.749 247.301 266.375 246.791L272.953 242.704C273.58 242.363 274.519 242.193 274.989 242.533L281.724 246.791C282.193 247.131 282.193 247.642 281.567 248.153L274.989 252.24C274.363 252.751 273.58 252.751 272.953 252.41Z" fill="#2F63C2"></path>
        <path opacity="0.8" d="M283.29 258.879L276.556 254.622C276.086 254.281 276.086 253.77 276.712 253.259L283.29 249.172C283.917 248.832 284.856 248.661 285.326 249.002L292.06 253.259C292.53 253.6 292.53 254.111 291.904 254.622L285.326 258.708C284.7 259.219 283.76 259.219 283.29 258.879Z" fill="#2F63C2"></path>
        <path opacity="0.8" d="M293.47 265.35L286.735 261.093C286.265 260.753 286.265 260.242 286.892 259.731L293.47 255.644C294.096 255.303 295.036 255.133 295.506 255.474L302.24 259.731C302.71 260.072 302.71 260.582 302.084 261.093L295.506 265.18C295.036 265.521 294.096 265.691 293.47 265.35Z" fill="#2F63C2"></path>
        <path opacity="0.8" d="M303.807 271.822L297.072 267.565C296.602 267.224 296.602 266.713 297.229 266.203L303.807 262.116C304.433 261.775 305.373 261.605 305.843 261.945L312.577 266.203C313.047 266.543 313.047 267.054 312.42 267.565L305.843 271.652C305.216 271.992 304.276 272.163 303.807 271.822Z" fill="#2F63C2"></path>
        <path opacity="0.8" d="M314.144 278.294L307.409 274.037C306.939 273.696 306.939 273.185 307.566 272.674L314.144 268.587C314.77 268.247 315.71 268.077 316.18 268.417L322.914 272.674C323.384 273.015 323.384 273.526 322.757 274.037L316.18 278.123C315.553 278.464 314.613 278.464 314.144 278.294Z" fill="#2F63C2"></path>
        <path opacity="0.8" d="M324.323 284.594L317.589 280.336C317.119 279.996 317.119 279.485 317.745 278.974L324.323 274.887C324.95 274.547 325.889 274.376 326.359 274.717L333.094 278.974C333.564 279.315 333.564 279.826 332.937 280.336L326.359 284.423C325.889 284.934 324.95 284.934 324.323 284.594Z" fill="#2F63C2"></path>
        <path opacity="0.8" d="M334.66 291.065L327.926 286.808C327.456 286.467 327.456 285.957 328.082 285.446L334.66 281.359C335.287 281.018 336.226 280.848 336.696 281.189L343.431 285.446C343.901 285.786 343.901 286.297 343.274 286.808L336.696 290.895C336.07 291.406 335.13 291.406 334.66 291.065Z" fill="#2F63C2"></path>
        <path opacity="0.8" d="M344.996 297.535L338.262 293.278C337.792 292.937 337.792 292.426 338.418 291.916L344.996 287.829C345.623 287.488 346.562 287.318 347.032 287.658L353.767 291.916C354.236 292.256 354.236 292.767 353.61 293.278L347.032 297.365C346.406 297.876 345.466 297.876 344.996 297.535Z" fill="#2F63C2"></path>
        <path opacity="0.8" d="M355.177 304.007L348.442 299.749C347.972 299.409 347.972 298.898 348.599 298.387L355.177 294.3C355.803 293.96 356.743 293.789 357.213 294.13L363.947 298.387C364.417 298.728 364.417 299.239 363.791 299.749L357.213 303.836C356.743 304.347 355.803 304.347 355.177 304.007Z" fill="#2F63C2"></path>
        <path opacity="0.8" d="M214.223 253.262L194.646 241.001C194.177 240.661 194.177 240.15 194.803 239.639L201.381 235.552C202.007 235.212 202.947 235.041 203.417 235.382L222.994 247.643C223.464 247.983 223.464 248.494 222.837 249.005L216.259 253.092C215.633 253.432 214.693 253.603 214.223 253.262Z" fill="#2F63C2"></path>
        <path opacity="0.8" d="M340.455 332.445L320.878 320.184C320.408 319.843 320.408 319.333 321.034 318.822L327.612 314.735C328.239 314.394 329.178 314.224 329.648 314.565L349.225 326.825C349.695 327.166 349.695 327.677 349.069 328.188L342.491 332.275C342.021 332.785 341.081 332.785 340.455 332.445Z" fill="#2F63C2"></path>
        <path opacity="0.8" d="M299.422 320.866L292.687 316.609C292.218 316.268 292.218 315.757 292.844 315.246L300.675 310.308C301.301 309.968 302.241 309.797 302.711 310.138L309.445 314.395C309.915 314.736 309.915 315.246 309.289 315.757L301.458 320.696C300.831 321.206 299.892 321.206 299.422 320.866Z" fill="#2F63C2"></path>
        <path opacity="0.8" d="M224.716 274.035L214.066 267.394C213.597 267.053 213.597 266.542 214.223 266.032L222.054 261.093C222.68 260.753 223.62 260.582 224.09 260.923L234.74 267.564C235.209 267.905 235.209 268.416 234.583 268.927L226.752 273.865C226.126 274.376 225.186 274.376 224.716 274.035Z" fill="#2F63C2"></path>
        <path opacity="0.8" d="M289.555 314.735L278.905 308.094C278.435 307.754 278.435 307.243 279.062 306.732L286.893 301.793C287.519 301.453 288.459 301.283 288.929 301.623L299.578 308.264C300.048 308.605 300.048 309.116 299.422 309.627L291.591 314.565C290.965 315.076 290.025 315.076 289.555 314.735Z" fill="#2F63C2"></path>
        <path opacity="0.8" d="M239.595 283.402L228.945 276.761C228.475 276.421 228.475 275.91 229.102 275.399L236.933 270.46C237.559 270.12 238.499 269.95 238.969 270.29L249.618 276.931C250.088 277.272 250.088 277.783 249.462 278.294L241.631 283.232C241.005 283.743 240.065 283.743 239.595 283.402Z" fill="#2F63C2"></path>
        <path opacity="0.8" d="M239.124 270.46L285.482 299.579C286.109 299.92 286.109 300.601 285.482 300.942L277.495 306.05C276.868 306.391 275.929 306.391 275.459 306.05L228.944 276.761L239.124 270.46Z" fill="#2F63C2"></path>
        <path opacity="0.8" d="M328.082 332.615L335.443 337.213C335.913 337.553 335.756 337.894 335.286 338.235L331.997 340.278C331.527 340.619 330.744 340.619 330.274 340.278L322.914 335.68C322.444 335.34 322.6 334.999 323.07 334.658L326.359 332.615C326.986 332.445 327.769 332.445 328.082 332.615Z" fill="#2F63C2"></path>
        <path opacity="0.8" d="M317.746 326.143L325.107 330.741C325.577 331.081 325.42 331.422 324.95 331.762L321.661 333.806C321.191 334.146 320.408 334.146 319.939 333.806L312.578 329.208C312.108 328.868 312.264 328.527 312.734 328.186L316.023 326.143C316.493 325.973 317.276 325.802 317.746 326.143Z" fill="#2F63C2"></path>
        <path opacity="0.8" d="M307.409 319.674L314.77 324.272C315.24 324.612 315.083 324.953 314.613 325.294L311.324 327.337C310.855 327.678 310.072 327.678 309.602 327.337L302.241 322.739C301.771 322.399 301.927 322.058 302.397 321.718L305.686 319.674C306.313 319.504 307.096 319.334 307.409 319.674Z" fill="#2F63C2"></path>
        <path opacity="0.8" d="M323.384 322.568L330.745 327.166C331.214 327.506 331.058 327.847 330.588 328.187L327.299 330.231C326.829 330.571 326.046 330.571 325.576 330.231L318.215 325.633C317.745 325.292 317.902 324.952 318.372 324.611L321.661 322.568C322.287 322.397 323.07 322.227 323.384 322.568Z" fill="#2F63C2"></path>
    </g>
    <path d="M428.316 148.532C427.846 148.532 427.22 148.362 426.75 148.021C425.184 146.999 424.244 144.785 424.557 143.083C424.714 142.231 425.184 141.55 425.81 141.209C426.593 140.869 427.376 141.039 428.316 141.55C429.882 142.572 430.822 144.785 430.508 146.488C430.352 147.34 429.882 148.021 429.256 148.362C428.942 148.532 428.629 148.532 428.316 148.532ZM426.906 141.891C426.75 141.891 426.436 141.891 426.28 142.061C425.81 142.231 425.497 142.742 425.34 143.253C425.027 144.785 425.81 146.488 427.22 147.34C427.846 147.68 428.472 147.851 429.099 147.51C429.569 147.34 429.882 146.829 430.039 146.318C430.352 144.785 429.569 143.083 428.159 142.231C427.689 142.061 427.22 141.891 426.906 141.891Z" fill="#00CFFF"></path>
    <path d="M436.773 153.978C436.303 153.978 435.677 153.808 435.207 153.467C433.641 152.446 432.701 150.232 433.014 148.529C433.171 147.677 433.641 146.996 434.267 146.656C435.05 146.315 435.833 146.485 436.773 146.996C438.339 148.018 439.279 150.232 438.965 151.935C438.809 152.786 438.339 153.467 437.712 153.808C437.399 153.808 437.086 153.978 436.773 153.978ZM435.363 147.167C435.207 147.167 434.893 147.167 434.737 147.337C434.267 147.507 433.954 148.018 433.797 148.529C433.484 150.061 434.267 151.764 435.677 152.616C436.303 152.956 436.929 153.127 437.556 152.786C438.026 152.616 438.339 152.105 438.496 151.594C438.809 150.061 438.026 148.359 436.616 147.507C436.146 147.337 435.677 147.167 435.363 147.167Z" fill="#00CFFF"></path>
    <path d="M447.266 157.213C446.953 158.746 445.543 159.427 443.977 158.405C442.411 157.384 441.628 155.511 441.941 153.808C442.254 152.275 443.664 151.594 445.23 152.616C446.64 153.467 447.579 155.511 447.266 157.213Z" fill="#00CFFF"></path>
    <path d="M284.543 55.3821L280.001 52.4872L280.471 50.2734L285.013 53.1683L284.543 55.3821Z" fill="#00CFFF"></path>
    <path d="M291.121 59.47L286.735 56.7454L287.049 54.3613L291.59 57.2562L291.121 59.47Z" fill="#00CFFF"></path>
    <path d="M278.122 51.2957L268.099 44.995L268.412 42.7812L278.435 49.0819L278.122 51.2957Z" fill="#00CFFF"></path>
    <path d="M279.374 94.3815L271.7 89.6134L272.013 87.7402L279.687 92.5083L279.374 94.3815Z" fill="#42E8E0"></path>
    <path d="M285.796 98.4675L282.037 96.0835L282.35 94.04L286.109 96.4241L285.796 98.4675Z" fill="#42E8E0"></path>
    <path d="M280.941 100.172L277.652 98.129L277.966 96.2559L281.098 98.2993L280.941 100.172Z" fill="#42E8E0"></path>
    <path d="M286.266 103.578L282.507 101.194L282.82 99.3213L286.579 101.705L286.266 103.578Z" fill="#42E8E0"></path>
    <path d="M291.904 112.091L277.025 102.725L277.182 100.682L292.217 110.048L291.904 112.091Z" fill="#42E8E0"></path>
    <path d="M278.905 149.384L264.026 140.188L264.34 138.145L279.218 147.51L278.905 149.384Z" fill="#42E8E0"></path>
    <path d="M284.7 153.129L280.941 150.745L281.098 148.701L285.013 151.085L284.7 153.129Z" fill="#42E8E0"></path>
    <path d="M279.531 109.196L276.242 107.152L276.555 105.279L279.844 107.323L279.531 109.196Z" fill="#42E8E0"></path>
    <path d="M284.857 112.602L281.098 110.218L281.411 108.345L285.17 110.729L284.857 112.602Z" fill="#42E8E0"></path>
    <path d="M283.76 116.689L275.616 111.58L275.929 109.707L284.073 114.816L283.76 116.689Z" fill="#42E8E0"></path>
    <path d="M289.242 120.263L285.483 117.879L285.797 115.836L289.555 118.22L289.242 120.263Z" fill="#42E8E0"></path>
    <path d="M294.723 123.671L290.964 121.287L291.277 119.414L295.036 121.798L294.723 123.671Z" fill="#42E8E0"></path>
    <path d="M303.651 129.29L296.446 124.693L296.759 122.819L303.964 127.417L303.651 129.29Z" fill="#42E8E0"></path>
    <path d="M298.012 135.422L294.253 133.038L294.566 131.165L298.325 133.549L298.012 135.422Z" fill="#42E8E0"></path>
    <path d="M306.939 141.042L299.734 136.614L300.048 134.741L307.252 139.169L306.939 141.042Z" fill="#42E8E0"></path>
    <path d="M277.965 122.989L274.206 120.605L274.519 118.562L278.278 120.946L277.965 122.989Z" fill="#42E8E0"></path>
    <path d="M283.447 126.396L279.688 124.012L280.002 122.139L283.761 124.523L283.447 126.396Z" fill="#42E8E0"></path>
    <path d="M292.374 132.014L285.17 127.416L285.483 125.543L292.687 130.141L292.374 132.014Z" fill="#42E8E0"></path>
    <path d="M304.119 134.401L300.204 132.017L300.517 130.144L304.433 132.528L304.119 134.401Z" fill="#42E8E0"></path>
    <path d="M309.601 137.805L305.843 135.421L306.156 133.548L309.915 135.932L309.601 137.805Z" fill="#42E8E0"></path>
    <path d="M318.528 143.424L311.324 138.996L311.637 137.123L318.842 141.551L318.528 143.424Z" fill="#42E8E0"></path>
    <path d="M290.651 156.878L286.893 154.494L287.049 152.45L290.965 154.834L290.651 156.878Z" fill="#42E8E0"></path>
    <path d="M299.578 162.327L292.374 157.9L292.687 156.026L299.735 160.454L299.578 162.327Z" fill="#42E8E0"></path>
    <path d="M276.556 131.845L272.797 129.461L273.11 127.588L276.869 129.972L276.556 131.845Z" fill="#42E8E0"></path>
    <path d="M285.483 137.465L278.278 133.038L278.592 130.994L285.796 135.592L285.483 137.465Z" fill="#42E8E0"></path>
    <path d="M294.723 164.371L290.964 161.987L291.277 159.943L295.036 162.327L294.723 164.371Z" fill="#42E8E0"></path>
    <path d="M303.651 169.818L296.446 165.391L296.759 163.518L303.964 167.945L303.651 169.818Z" fill="#42E8E0"></path>
    <path d="M303.181 119.074L299.422 116.69L299.735 114.816L303.494 117.2L303.181 119.074Z" fill="#42E8E0"></path>
    <path d="M297.542 115.497L293.627 113.113L293.94 111.24L297.699 113.624L297.542 115.497Z" fill="#42E8E0"></path>
    <path d="M312.108 124.693L304.903 120.266L305.217 118.393L312.421 122.82L312.108 124.693Z" fill="#42E8E0"></path>
    <path d="M278.279 118.222L274.833 116.008L275.146 114.135L278.592 116.349L278.279 118.222Z" fill="#42E8E0"></path>
    <path d="M288.459 124.522L280.158 119.413L280.471 117.54L288.772 122.649L288.459 124.522Z" fill="#42E8E0"></path>
    <path d="M298.639 130.992L290.338 125.713L290.651 123.84L298.952 129.119L298.639 130.992Z" fill="#42E8E0"></path>
    <path d="M317.433 128.098L313.987 125.884L314.301 124.011L317.746 126.054L317.433 128.098Z" fill="#42E8E0"></path>
    <path d="M327.612 134.399L319.155 129.12L319.468 127.247L327.769 132.526L327.612 134.399Z" fill="#42E8E0"></path>
    <path d="M337.636 140.869L329.335 135.59L329.648 133.717L337.949 138.825L337.636 140.869Z" fill="#42E8E0"></path>
    <path d="M281.881 130.312L273.58 125.033L273.893 123.16L282.194 128.439L281.881 130.312Z" fill="#42E8E0"></path>
    <path d="M286.267 133.037L283.761 131.504L284.074 129.461L286.58 131.164L286.267 133.037Z" fill="#42E8E0"></path>
    <path d="M290.651 135.761L288.146 134.229L288.459 132.355L290.965 133.888L290.651 135.761Z" fill="#42E8E0"></path>
    <path d="M298.795 140.871L292.53 136.954L292.843 135.081L299.108 138.998L298.795 140.871Z" fill="#42E8E0"></path>
    <path d="M307.879 131.847L305.373 130.315L305.686 128.441L308.192 129.974L307.879 131.847Z" fill="#42E8E0"></path>
    <path d="M316.022 136.955L309.758 133.038L310.071 131.165L316.336 135.082L316.022 136.955Z" fill="#42E8E0"></path>
    <path d="M317.746 138.145L311.481 134.058L311.795 132.185L318.059 136.101L317.746 138.145Z" fill="#42E8E0"></path>
    <path d="M284.23 162.667L276.086 157.558L276.399 155.515L284.543 160.794L284.23 162.667Z" fill="#42E8E0"></path>
    <path d="M289.712 166.073L285.953 163.689L286.266 161.815L290.025 164.199L289.712 166.073Z" fill="#42E8E0"></path>
    <path d="M295.35 169.478L291.435 167.094L291.748 165.221L295.663 167.605L295.35 169.478Z" fill="#42E8E0"></path>
    <path d="M304.12 175.098L297.072 170.67L297.229 168.797L304.433 173.224L304.12 175.098Z" fill="#42E8E0"></path>
    <path d="M309.915 178.675L306.156 176.291L306.313 174.418L310.228 176.802L309.915 178.675Z" fill="#42E8E0"></path>
    <path d="M318.842 184.293L311.638 179.866L311.951 177.822L319.155 182.42L318.842 184.293Z" fill="#42E8E0"></path>
    <path d="M291.435 176.973L287.676 174.589L287.989 172.716L291.748 175.1L291.435 176.973Z" fill="#42E8E0"></path>
    <path d="M300.362 182.591L293.157 177.993L293.47 176.12L300.675 180.718L300.362 182.591Z" fill="#42E8E0"></path>
    <path d="M271.701 164.539L267.785 162.155L268.098 160.282L272.014 162.666L271.701 164.539Z" fill="#42E8E0"></path>
    <path d="M277.182 167.946L273.423 165.562L273.736 163.688L277.495 166.072L277.182 167.946Z" fill="#42E8E0"></path>
    <path d="M286.11 173.565L278.905 169.137L279.219 167.094L286.423 171.692L286.11 173.565Z" fill="#42E8E0"></path>
    <path d="M278.749 164.029L275.46 161.986L275.617 160.112L279.062 162.156L278.749 164.029Z" fill="#42E8E0"></path>
    <path d="M288.929 170.501L280.628 165.222L280.941 163.349L289.242 168.628L288.929 170.501Z" fill="#42E8E0"></path>
    <path d="M299.108 176.8L290.808 171.691L291.121 169.647L299.421 174.926L299.108 176.8Z" fill="#42E8E0"></path>
    <path d="M268.882 167.604L260.581 162.496L260.894 160.452L269.195 165.731L268.882 167.604Z" fill="#42E8E0"></path>
    <path d="M273.267 170.5L270.761 168.797L270.917 166.924L273.58 168.456L273.267 170.5Z" fill="#42E8E0"></path>
    <path d="M277.652 173.224L275.146 171.521L275.303 169.647L277.966 171.35L277.652 173.224Z" fill="#42E8E0"></path>
    <path d="M285.796 178.333L279.531 174.417L279.845 172.373L286.109 176.46L285.796 178.333Z" fill="#42E8E0"></path>
    <path d="M287.518 179.356L281.254 175.44L281.411 173.566L287.832 177.483L287.518 179.356Z" fill="#42E8E0"></path>
    <path d="M272.641 150.407L269.979 148.874L270.292 146.831L272.954 148.534L272.641 150.407Z" fill="#42E8E0"></path>
    <path d="M280.785 155.515L274.521 151.599L274.677 149.726L281.098 153.642L280.785 155.515Z" fill="#42E8E0"></path>
    <path d="M289.085 160.795L282.82 156.708L282.977 154.835L289.398 158.752L289.085 160.795Z" fill="#42E8E0"></path>
    <path d="M321.034 190.595L317.275 188.211L317.589 186.338L321.347 188.722L321.034 190.595Z" fill="#42E8E0"></path>
    <path d="M329.961 196.213L322.757 191.615L323.07 189.742L330.274 194.34L329.961 196.213Z" fill="#42E8E0"></path>
    <path d="M307.096 181.74L300.675 177.823L300.988 175.95L307.253 179.867L307.096 181.74Z" fill="#42E8E0"></path>
    <path d="M315.397 187.018L308.976 183.102L309.289 181.229L315.553 185.145L315.397 187.018Z" fill="#42E8E0"></path>
    <path d="M268.099 131.505L265.593 129.802L265.906 127.929L268.412 129.632L268.099 131.505Z" fill="#42E8E0"></path>
    <path d="M276.243 136.611L269.979 132.695L270.292 130.651L276.556 134.738L276.243 136.611Z" fill="#42E8E0"></path>
    <path d="M284.543 141.721L278.278 137.805L278.592 135.932L284.856 139.848L284.543 141.721Z" fill="#42E8E0"></path>
    <path d="M409.992 211.368C409.365 211.368 408.895 211.198 408.269 210.857L357.369 179.013C355.333 177.651 353.924 174.415 354.393 171.691L357.682 150.575C357.839 149.213 358.622 148.021 359.562 147.51C360.501 146.999 361.441 147.169 362.537 147.851L413.437 179.694C415.473 181.057 416.883 184.292 416.413 187.017L413.124 208.133C412.967 209.495 412.184 210.687 411.245 211.198C410.931 211.198 410.462 211.368 409.992 211.368ZM360.815 147.851C360.501 147.851 360.188 147.851 359.875 148.021C359.092 148.361 358.622 149.383 358.465 150.405L355.177 171.521C354.863 173.905 355.96 176.97 357.839 177.992L408.739 209.835C409.522 210.346 410.305 210.346 411.088 210.006C411.871 209.665 412.341 208.643 412.498 207.622L415.786 186.506C416.1 184.122 415.003 181.057 413.124 180.035L362.224 148.361C361.754 148.021 361.285 147.851 360.815 147.851Z" fill="#00CFFF"></path>
    <path d="M404.51 247.641C403.884 247.641 403.414 247.47 402.788 247.13L351.888 215.286C349.852 213.923 348.442 210.688 348.912 207.963L352.201 186.848C352.358 185.485 353.141 184.293 354.08 183.782C355.02 183.272 355.96 183.442 357.056 184.123L407.956 215.967C409.992 217.329 411.401 220.565 410.932 223.289L407.643 244.405C407.486 245.767 406.703 246.959 405.763 247.47C405.293 247.47 404.824 247.641 404.51 247.641ZM403.101 246.278C403.884 246.789 404.667 246.789 405.45 246.449C406.233 246.108 406.703 245.086 406.86 244.064L410.148 222.949C410.462 220.565 409.365 217.499 407.486 216.478L356.586 184.634C355.803 184.123 355.02 184.123 354.237 184.464C353.454 184.804 352.984 185.826 352.827 186.848L349.538 207.963C349.225 210.347 350.322 213.413 352.201 214.434L403.101 246.278Z" fill="#00CFFF"></path>
    <path opacity="0.5" d="M362.067 176.632C363.007 177.142 363.79 176.972 364.103 176.121L370.055 158.581C370.681 156.538 373.5 158.411 374.127 161.306L377.729 179.016C378.042 180.378 378.825 181.57 379.765 182.251L380.705 182.762C381.488 183.273 382.271 183.103 382.584 182.421L383.837 179.697C384.62 177.994 387.126 179.526 387.752 182.251C388.066 183.443 388.849 184.635 389.788 185.146L390.571 185.657C391.511 186.168 392.294 185.997 392.607 185.146L393.704 181.4C394.33 179.356 397.149 181.059 397.776 183.954L401.378 200.302C401.691 201.664 402.474 202.856 403.414 203.367L362.067 176.632Z" fill="url(#paint6_linear)"></path>
    <path d="M396.836 239.297C395.896 238.616 394.957 237.254 394.643 235.891L391.041 219.544C390.728 217.841 389.318 216.478 388.379 216.478C388.066 216.478 387.752 216.649 387.596 217.16L386.499 220.906C386.343 221.417 386.03 221.757 385.56 221.928C385.09 222.098 384.463 222.098 383.837 221.587L383.054 221.076C382.114 220.395 381.174 219.203 380.861 217.841C380.391 216.138 379.138 214.946 378.355 214.776C378.042 214.776 377.729 214.946 377.572 215.286L376.319 218.011C376.163 218.522 375.85 218.692 375.38 218.862C374.91 219.033 374.44 218.862 373.814 218.522L372.874 218.011C371.778 217.33 370.994 215.968 370.681 214.605L367.079 196.895C366.766 195.192 365.356 193.83 364.573 193.66C364.26 193.66 363.947 193.83 363.79 194.171L357.839 211.71C357.682 212.221 357.369 212.562 356.899 212.732C356.429 212.902 355.803 212.902 355.333 212.392L355.646 211.71C355.959 211.881 356.429 212.051 356.743 211.881C356.899 211.881 357.056 211.54 357.212 211.37L363.164 193.83C363.477 193.149 363.947 192.638 364.573 192.808C365.826 192.808 367.392 194.511 367.862 196.555L371.464 214.265C371.778 215.457 372.404 216.649 373.344 217.16L374.283 217.67C374.597 217.841 375.066 218.011 375.223 217.841C375.38 217.841 375.536 217.67 375.693 217.33L376.946 214.605C377.259 213.924 377.729 213.584 378.355 213.754C379.608 213.924 381.018 215.457 381.488 217.33C381.801 218.522 382.427 219.544 383.367 220.055L384.15 220.565C384.62 220.736 384.933 220.906 385.246 220.736C385.403 220.565 385.56 220.395 385.716 220.225L386.813 216.478C386.969 215.797 387.596 215.286 388.222 215.286C389.475 215.286 391.041 216.819 391.511 219.033L395.113 235.38C395.426 236.572 396.209 237.764 396.993 238.275L396.836 239.297Z" fill="#00CFFF"></path>
    <path d="M376.32 129.969C375.536 129.969 374.753 129.798 374.127 129.288L334.347 104.425C331.841 102.893 330.588 99.1465 331.214 96.0814C331.528 94.5488 332.467 93.3567 333.564 92.8459C334.66 92.335 336.069 92.5053 337.166 93.1864L376.946 118.049C379.452 119.581 380.705 123.327 380.078 126.393C379.765 127.925 378.825 129.117 377.729 129.628C377.416 129.798 376.946 129.969 376.32 129.969ZM335.13 93.3567C334.66 93.3567 334.347 93.3567 334.033 93.527C333.094 94.0379 332.311 94.8893 331.997 96.2516C331.371 98.9762 332.467 102.212 334.66 103.574L374.44 128.436C375.38 129.117 376.476 129.117 377.416 128.777C378.355 128.266 379.139 127.414 379.452 126.052C380.078 123.327 378.982 120.092 376.789 118.73L337.009 93.8676C336.383 93.527 335.756 93.3567 335.13 93.3567Z" fill="#00CFFF"></path>
    <path opacity="0.51" d="M251.798 5.06348L464.794 138.74L437.856 311.583L225.017 178.076L251.798 5.06348Z" fill="#3884FE"></path>
    <defs>
        <linearGradient id="paint0_linear" x1="90.0273" y1="214.21" x2="446.589" y2="214.21" gradientUnits="userSpaceOnUse">
            <stop stop-color="#6050F5"></stop>
            <stop offset="1" stop-color="#78B4F8"></stop>
        </linearGradient>
        <linearGradient id="paint1_linear" x1="470.153" y1="158.58" x2="225.325" y2="158.58" gradientUnits="userSpaceOnUse">
            <stop stop-color="#C0BFF6"></stop>
            <stop offset="0.2938" stop-color="#C5C4F7"></stop>
            <stop offset="0.6399" stop-color="#D3D2F9"></stop>
            <stop offset="1" stop-color="#E9E9FD"></stop>
        </linearGradient>
        <linearGradient id="paint2_linear" x1="470.151" y1="226.849" x2="428.112" y2="226.849" gradientUnits="userSpaceOnUse">
            <stop stop-color="#5761D7"></stop>
            <stop offset="0.1779" stop-color="#5C66D9"></stop>
            <stop offset="0.3876" stop-color="#6A73DF"></stop>
            <stop offset="0.6134" stop-color="#8289E8"></stop>
            <stop offset="0.849" stop-color="#A3A7F5"></stop>
            <stop offset="1" stop-color="#BCBEFF"></stop>
        </linearGradient>
        <linearGradient id="paint3_linear" x1="437.351" y1="301.335" x2="91.574" y2="301.335" gradientUnits="userSpaceOnUse">
            <stop stop-color="#4243E3"></stop>
            <stop offset="0.1779" stop-color="#2562D0"></stop>
            <stop offset="0.3876" stop-color="#3D74D7"></stop>
            <stop offset="0.6134" stop-color="#5E8AD8"></stop>
            <stop offset="0.849" stop-color="#CCE0FF"></stop>
            <stop offset="1" stop-color="#4A84E2"></stop>
        </linearGradient>
        <linearGradient id="paint4_linear" x1="590.964" y1="291.056" x2="81.4501" y2="291.056" gradientUnits="userSpaceOnUse">
            <stop stop-color="#C1BFF6"></stop>
            <stop offset="0.2938" stop-color="#8FBAFF"></stop>
            <stop offset="0.6399" stop-color="#CBDFFF"></stop>
            <stop offset="1" stop-color="#E7F0FF"></stop>
        </linearGradient>
        <linearGradient id="paint5_linear" x1="570.313" y1="218.593" x2="224.537" y2="218.593" gradientUnits="userSpaceOnUse">
            <stop stop-color="#5761D7"></stop>
            <stop offset="0.1779" stop-color="#5C66D9"></stop>
            <stop offset="0.3876" stop-color="#6A73DF"></stop>
            <stop offset="0.6134" stop-color="#8289E8"></stop>
            <stop offset="0.849" stop-color="#A3A7F5"></stop>
            <stop offset="1" stop-color="#BCBEFF"></stop>
        </linearGradient>
        <linearGradient id="paint6_linear" x1="365.948" y1="170.462" x2="440.765" y2="199.899" gradientUnits="userSpaceOnUse">
            <stop stop-color="#42E8E0"></stop>
            <stop offset="0.1055" stop-color="#37B6BF"></stop>
            <stop offset="0.2197" stop-color="#2C87A1"></stop>
            <stop offset="0.338" stop-color="#235F87"></stop>
            <stop offset="0.4587" stop-color="#1C3F72"></stop>
            <stop offset="0.5824" stop-color="#162561"></stop>
            <stop offset="0.7105" stop-color="#121355"></stop>
            <stop offset="0.8458" stop-color="#10084E"></stop>
            <stop offset="1" stop-color="#0F054C"></stop>
        </linearGradient>
    </defs>
</svg>